<svg xmlns="http://www.w3.org/2000/svg" width="26.278" height="25.566" viewBox="0 0 26.278 25.566">
  <path id="github_icon" d="M13.3.1A13.123,13.123,0,0,0,9.12,25.655c.643.08.884-.321.884-.643v-2.25c-3.616.8-4.42-1.768-4.42-1.768a3.318,3.318,0,0,0-1.447-1.929c-1.205-.8.08-.8.08-.8a2.8,2.8,0,0,1,2.009,1.366A2.782,2.782,0,0,0,10,20.753a2.8,2.8,0,0,1,.8-1.768c-2.893-.321-5.947-1.447-5.947-6.509A4.982,4.982,0,0,1,6.227,8.94a4.569,4.569,0,0,1,.161-3.456S7.513,5.163,10,6.85a14.791,14.791,0,0,1,3.295-.4,14.791,14.791,0,0,1,3.295.4c2.491-1.688,3.616-1.366,3.616-1.366a5.032,5.032,0,0,1,.161,3.456,5.2,5.2,0,0,1,1.366,3.536c0,5.063-3.054,6.108-5.947,6.429a3.069,3.069,0,0,1,.884,2.411v3.616c0,.321.241.723.884.643a13.113,13.113,0,0,0,8.92-12.456A13.206,13.206,0,0,0,13.3.1Z" transform="translate(-0.2 -0.1)" fill="#9A2539" fill-rule="evenodd"/>
</svg>
