<?xml version="1.0" encoding="utf-8"?>
<!-- Generator: Adobe Illustrator 26.0.1, SVG Export Plug-In . SVG Version: 6.00 Build 0)  -->
<svg version="1.1" id="Layer_1" xmlns="http://www.w3.org/2000/svg" xmlns:xlink="http://www.w3.org/1999/xlink" x="0px" y="0px"
	 viewBox="0 0 2076 253" style="enable-background:new 0 0 2076 253;" xml:space="preserve">
<style type="text/css">
	.st0{fill:#F1F1F1;}
</style>
<g>
	<path class="st0" d="M6,0H0v6v46.2v6h6h55.5v187.2v6h6h57.3h6v-6V58.2h55.5h6v-6V6V0h-6H6z M186.3,52.2h-61.5v193.2H67.5V52.2H6V6
		h180.3V52.2z"/>
	<path class="st0" d="M318,0h-6v6v87.6h-50.4V6V0h-6h-57h-6v6v239.4v6h6h57h6v-6v-93.6H312v93.6v6h6h57.3h6v-6V6V0h-6H318z
		 M375.3,245.4H318v-99.6h-62.4v99.6h-57V6h57v93.6H318V6h57.3V245.4z"/>
	<path class="st0" d="M462.9,193.2v-41.4h76.8h6v-6V99.6v-6h-6h-76.8V58.2H552h6v-6V6V0h-6H399.9h-6v6v239.4v6h6h153.6h6v-6v-46.2
		v-6h-6H462.9z M553.5,245.4H399.9V6H552v46.2h-95.1v47.4h82.8v46.2h-82.8v53.4h96.6V245.4z"/>
	<path class="st0" d="M782.7,156.9c0,31.8-12,46.2-36.3,46.2c-24.3,0-36.3-14.4-36.3-46.2V6h-57.3v150.3c0,57,30,93.3,93.6,93.3
		c63.3,0,93.3-36.3,93.3-93.3V6h-57V156.9z"/>
	<polygon class="st0" points="987.3,148.5 920.1,6 863.7,6 863.7,245.4 920.1,245.4 920.1,102.9 987.3,245.4 1043.7,245.4 1043.7,6 
		987.3,6 	"/>
	<rect x="1068.3" y="6" class="st0" width="57" height="239.4"/>
	<polygon class="st0" points="1242,185.4 1193.7,6 1136.1,6 1212,245.4 1272,245.4 1348.2,6 1290.6,6 	"/>
	<polygon class="st0" points="1416.3,145.8 1499.1,145.8 1499.1,99.6 1416.3,99.6 1416.3,52.2 1511.4,52.2 1511.4,6 1359.3,6 
		1359.3,245.4 1512.9,245.4 1512.9,199.2 1416.3,199.2 	"/>
	<path class="st0" d="M1707,190.2c-2.1-31.2-12-46.5-37.5-50.7c26.7-7.5,41.7-28.2,41.7-60.3c0-45-26.7-73.2-78.3-73.2h-100.8v239.4
		h57v-82.5h30c22.2,0,30,7.5,31.5,30.6l1.8,30c0.6,8.1,2.1,16.8,4.2,21.9h57.6c-2.7-5.4-4.5-12.6-5.1-22.2L1707,190.2z
		 M1622.1,116.7h-33V52.2h33c20.1,0,32.1,9,32.1,32.1C1654.2,107.7,1642.2,116.7,1622.1,116.7z"/>
	<path class="st0" d="M1838.4,102l-21-4.2c-23.1-4.8-32.7-12.6-32.7-27.9c0-14.1,9.6-23.4,27.6-23.4c17.4,0,27.3,9.3,27.3,23.4v3.9
		h56.7v-3.9c0-36.6-30.3-68.1-84-68.1C1758,1.8,1728,32.7,1728,72c0,42,25.2,63.9,67.2,72.3l21.3,4.2c22.8,4.5,31.8,14.1,31.8,29.4
		c0,16.2-11.1,27-30.9,27c-20.1,0-31.2-10.8-31.2-27v-5.1h-57v4.5c0,42,32.7,72.3,88.2,72.3c57,0,87.9-31.2,87.9-74.1
		C1905.3,134.7,1882.8,111,1838.4,102z"/>
	<polygon class="st0" points="1979.7,199.2 1979.7,145.8 2062.5,145.8 2062.5,99.6 1979.7,99.6 1979.7,52.2 2074.8,52.2 2074.8,6 
		1922.7,6 1922.7,245.4 2076.3,245.4 2076.3,199.2 	"/>
</g>
</svg>
