<?xml version="1.0" encoding="utf-8"?>
<!-- Generator: Adobe Illustrator 26.0.1, SVG Export Plug-In . SVG Version: 6.00 Build 0)  -->
<svg version="1.1" id="Layer_1" xmlns="http://www.w3.org/2000/svg" xmlns:xlink="http://www.w3.org/1999/xlink" x="0px" y="0px"
	 viewBox="0 0 2076 253" style="enable-background:new 0 0 2076 253;" xml:space="preserve">
<style type="text/css">
	.st0{fill:#F1F1F1;}
</style>
<g>
	<path class="st0" d="M186.3,6v46.2h-61.5v193.2H67.5V52.2H6V6H186.3 M192.3,0h-6H6H0v6v46.2v6h6h55.5v187.2v6h6h57.3h6v-6V58.2
		h55.5h6v-6V6V0L192.3,0z"/>
	<path class="st0" d="M375.3,6v239.4H318v-99.6h-62.4v99.6h-57V6h57v93.6H318V6H375.3 M381.3,0h-6H318h-6v6v87.6h-50.4V6V0h-6h-57
		h-6v6v239.4v6h6h57h6v-6v-93.6H312v93.6v6h6h57.3h6v-6V6V0L381.3,0z"/>
	<path class="st0" d="M552,6v46.2h-95.1v47.4h82.8v46.2h-82.8v53.4h96.6v46.2H399.9V6H552 M558,0h-6H399.9h-6v6v239.4v6h6h153.6h6
		v-6v-46.2v-6h-6h-90.6v-41.4h76.8h6v-6V99.6v-6h-6h-76.8V58.2H552h6v-6V6V0L558,0z"/>
	<path class="st0" d="M738.3,249.6c-55.5,0-88.2-30.3-88.2-72.3v-4.5h57v5.1c0,16.2,11.1,27,31.2,27c19.8,0,30.9-10.8,30.9-27
		c0-15.3-9-24.9-31.8-29.4l-21.3-4.2c-42-8.4-67.2-30.3-67.2-72.3c0-39.3,30-70.2,84.3-70.2c53.7,0,84,31.5,84,68.1v3.9h-56.7v-3.9
		c0-14.1-9.9-23.4-27.3-23.4c-18,0-27.6,9.3-27.6,23.4c0,15.3,9.6,23.1,32.7,27.9l21,4.2c44.4,9,66.9,32.7,66.9,73.5
		C826.2,218.4,795.3,249.6,738.3,249.6z"/>
	<path class="st0" d="M843.6,6h152.1v46.2h-95.1v47.4h82.8v46.2h-82.8v53.4h96.6v46.2H843.6V6z"/>
	<path class="st0" d="M1184.1,218.7c-16.5,20.4-39.9,30.9-74.1,30.9s-57.6-10.5-73.8-30.9c-18.3-22.8-24.6-55.2-24.6-93
		c0-37.8,6.3-70.2,24.6-93c16.2-20.4,39.6-30.9,73.8-30.9s57.6,10.5,74.1,30.9c18.3,22.8,24.3,55.2,24.3,93
		C1208.4,163.5,1202.4,195.9,1184.1,218.7z M1079.7,188.4c6.6,9.9,16.5,14.7,30.3,14.7c13.8,0,23.7-4.8,30.3-14.7
		c8.1-11.7,11.1-29.1,11.1-62.7s-3-51-11.1-62.7c-6.6-9.9-16.5-14.7-30.3-14.7c-13.8,0-23.7,4.8-30.3,14.7
		c-7.8,11.7-10.8,29.1-10.8,62.7S1071.9,176.7,1079.7,188.4z"/>
	<path class="st0" d="M1227.6,156.3V6h57.3v150.9c0,31.8,12,46.2,36.3,46.2c24.3,0,36.3-14.4,36.3-46.2V6h57v150.3
		c0,57-30,93.3-93.3,93.3C1257.6,249.6,1227.6,213.3,1227.6,156.3z"/>
	<path class="st0" d="M1438.5,6h57v193.2h96.6v46.2h-153.6V6z"/>
</g>
</svg>
