<?xml version="1.0" encoding="utf-8"?>
<!-- Generator: Adobe Illustrator 26.0.1, SVG Export Plug-In . SVG Version: 6.00 Build 0)  -->
<svg version="1.1" id="Layer_1" xmlns="http://www.w3.org/2000/svg" xmlns:xlink="http://www.w3.org/1999/xlink" x="0px" y="0px"
	 viewBox="0 0 916 253" style="enable-background:new 0 0 916 253;" xml:space="preserve">
<style type="text/css">
	.st0{fill:#F1F1F1;}
</style>
<g>
	<path class="st0" d="M153.4,8.9v-5h-5h-26.1h-5v5v160.2c0,34.1-13.7,51.4-40.6,51.4c-13.5,0-23.3-3.9-30-11.8
		c-6.9-8.2-10.6-21-10.9-38.1l-0.1-4.9h-4.9H5H0v5v1.5C0,223.5,27.8,253,76.4,253c23.9,0,43.6-7.4,56.8-21.4
		c13.4-14.1,20.2-34.1,20.2-59.5V8.9z M148.4,172.1c0,48.3-26.1,75.9-72,75.9C30.2,248,5,220.4,5,172.1v-1.5h25.8
		c0.6,36.9,16.2,54.9,45.9,54.9c28.8,0,45.6-18.3,45.6-56.4V8.9h26.1V172.1z"/>
	<path class="st0" d="M214.1,165.5h87L257.9,35.9L214.1,165.5z M221.1,160.5l36.8-108.9l36.3,108.9H221.1z"/>
	<path class="st0" d="M277.6,7.3l-1.2-3.4h-3.5h-30h-3.5l-1.2,3.3l-82.5,235.2l-2.3,6.7h7.1h27.3h3.6l1.2-3.4l17.8-52.4h95.4
		l17.7,52.4l1.2,3.4h3.6h27h7l-2.3-6.6L277.6,7.3z M328.1,244.1l-18.9-55.8H206.6l-18.9,55.8h-27.3L242.9,8.9h30l82.2,235.2H328.1z"
		/>
	<path class="st0" d="M405.4,216.6v-76.4h92.5h5v-5v-23.1v-5h-5h-92.5V36.7h104.5h5v-5V8.9v-5h-5H374.3h-5v5v235.2v5h5h137.4h5v-5
		v-22.5v-5h-5H405.4z M511.7,244.1H374.3V8.9h135.6v22.8H400.4v80.4h97.5v23.1h-97.5v86.4h111.3V244.1z"/>
	<path class="st0" d="M674,3.9h-5v5v98.2h-97.4V8.9v-5h-5h-26.1h-5v5v235.2v5h5h26.1h5v-5V140.2H669v103.9v5h5h26.1h5v-5V8.9v-5h-5
		H674z M700.1,244.1H674V135.2H566.6v108.9h-26.1V8.9h26.1v103.2H674V8.9h26.1V244.1z"/>
	<path class="st0" d="M896.8,37.9C881.2,12.8,855.8,0,821.3,0c-34.2,0-59.4,12.8-75.1,38c-13,21-19.4,49.9-19.4,88.5
		c0,38.8,6.4,67.9,19.5,88.8c15.6,25,40.8,37.7,74.9,37.7c34.4,0,59.7-12.6,75.3-37.6c13.1-20.9,19.4-49.9,19.4-88.9
		C916,87.7,909.7,58.7,896.8,37.9z M821.3,248c-69.3,0-89.4-53.7-89.4-121.5C731.9,59.6,751.7,5,821.3,5C891.8,5,911,59.3,911,126.5
		C911,194.6,891.2,248,821.3,248z"/>
	<path class="st0" d="M821.3,27.8c-48.9,0-63.3,38.1-63.3,98.7c0,60.9,14.1,98.7,63.3,98.7c49.5,0,63.9-38.1,63.9-98.7
		C885.2,66.2,870.5,27.8,821.3,27.8z M821.3,220.2c-21.9,0-36.5-7.6-45.8-24c-8.4-14.9-12.5-37.7-12.5-69.7
		c0-31.8,4.1-54.6,12.7-69.6c9.2-16.2,24.1-24.1,45.6-24.1c21.7,0,36.7,7.9,46.1,24.2c8.6,15.1,12.8,37.8,12.8,69.5
		c0,31.9-4.2,54.6-12.7,69.6C858.2,212.3,843.1,220.2,821.3,220.2z"/>
</g>
</svg>
