<?xml version="1.0" encoding="utf-8"?>
<!-- Generator: Adobe Illustrator 26.0.1, SVG Export Plug-In . SVG Version: 6.00 Build 0)  -->
<svg version="1.1" id="Layer_1" xmlns="http://www.w3.org/2000/svg" xmlns:xlink="http://www.w3.org/1999/xlink" x="0px" y="0px"
	 viewBox="0 0 2076 253" style="enable-background:new 0 0 2076 253;" xml:space="preserve">
<style type="text/css">
	.st0{fill:#F1F1F1;}
</style>
<g>
	<path class="st0" d="M186.3,6v46.2h-61.5v193.2H67.5V52.2H6V6H186.3 M192.3,0h-6H6H0v6v46.2v6h6h55.5v187.2v6h6h57.3h6v-6V58.2
		h55.5h6v-6V6V0L192.3,0z"/>
	<path class="st0" d="M375.3,6v239.4H318v-99.6h-62.4v99.6h-57V6h57v93.6H318V6H375.3 M381.3,0h-6H318h-6v6v87.6h-50.4V6V0h-6h-57
		h-6v6v239.4v6h6h57h6v-6v-93.6H312v93.6v6h6h57.3h6v-6V6V0L381.3,0z"/>
	<path class="st0" d="M552,6v46.2h-95.1v47.4h82.8v46.2h-82.8v53.4h96.6v46.2H399.9V6H552 M558,0h-6H399.9h-6v6v239.4v6h6h153.6h6
		v-6v-46.2v-6h-6h-90.6v-41.4h76.8h6v-6V99.6v-6h-6h-76.8V58.2H552h6v-6V6V0L558,0z"/>
	<path class="st0" d="M827.1,6l43.2,169.2L905.7,6h57l-61.5,239.4h-54.3l-45-172.8l-44.4,172.8h-54.6L641.4,6h57l35.1,169.2L777.3,6
		H827.1z"/>
	<path class="st0" d="M1139.7,218.7c-16.5,20.4-39.9,30.9-74.1,30.9c-34.2,0-57.6-10.5-73.8-30.9c-18.3-22.8-24.6-55.2-24.6-93
		c0-37.8,6.3-70.2,24.6-93c16.2-20.4,39.6-30.9,73.8-30.9c34.2,0,57.6,10.5,74.1,30.9c18.3,22.8,24.3,55.2,24.3,93
		C1164,163.5,1158,195.9,1139.7,218.7z M1035.3,188.4c6.6,9.9,16.5,14.7,30.3,14.7c13.8,0,23.7-4.8,30.3-14.7
		c8.1-11.7,11.1-29.1,11.1-62.7s-3-51-11.1-62.7c-6.6-9.9-16.5-14.7-30.3-14.7c-13.8,0-23.7,4.8-30.3,14.7
		c-7.8,11.7-10.8,29.1-10.8,62.7S1027.5,176.7,1035.3,188.4z"/>
	<path class="st0" d="M1302.9,193.5c-1.5-23.1-9.3-30.6-31.5-30.6h-30v82.5h-57V6h100.8c51.6,0,78.3,28.2,78.3,73.2
		c0,32.1-15,52.8-41.7,60.3c25.5,4.2,35.4,19.5,37.5,50.7l2.1,33c0.6,9.6,2.4,16.8,5.1,22.2h-57.6c-2.1-5.1-3.6-13.8-4.2-21.9
		L1302.9,193.5z M1274.4,116.7c20.1,0,32.1-9,32.1-32.4c0-23.1-12-32.1-32.1-32.1h-33v64.5H1274.4z"/>
	<path class="st0" d="M1385.4,6h57v193.2h96.6v46.2h-153.6V6z"/>
	<path class="st0" d="M1551.6,245.4V6h91.5c77.4,0,95.7,49.8,95.7,119.7c0,69.9-18.3,119.7-95.7,119.7H1551.6z M1640.1,51h-31.5
		v149.4h31.5c29.4,0,41.7-13.8,41.7-74.7S1669.5,51,1640.1,51z"/>
</g>
</svg>
