<?xml version="1.0" encoding="utf-8"?>
<!-- Generator: Adobe Illustrator 26.0.1, SVG Export Plug-In . SVG Version: 6.00 Build 0)  -->
<svg version="1.1" id="Layer_1" xmlns="http://www.w3.org/2000/svg" xmlns:xlink="http://www.w3.org/1999/xlink" x="0px" y="0px"
	 viewBox="0 0 1110 253" style="enable-background:new 0 0 1110 253;" xml:space="preserve">
<style type="text/css">
	.st0{fill:#F1F1F1;}
</style>
<g>
	<path class="st0" d="M80,5c48.9,0,75,28.8,75,63.6v4.5h-26.1v-4.5c0-24.3-17.4-40.8-48.9-40.8S30.8,44.3,30.8,68.6
		c0,22.2,13.8,34.5,40.5,40.2l30.3,6.3c41.1,8.7,62.1,30.6,62.1,66c0,38.1-28.5,66.9-79.2,66.9C33.5,248,5,219.2,5,181.1v-6.3h25.8
		v6.6c0,25.5,19.8,44.1,53.7,44.1c33.3,0,53.4-18.6,53.4-44.1c0-21.9-13.8-37.8-44.4-44.1L63.2,131C26.6,123.5,5,103.4,5,68.6
		C5,33.8,30.8,5,80,5 M80,0C55.5,0,35,6.9,20.7,20.1C7.3,32.3,0,49.5,0,68.6c0,35.7,21.5,59,62.2,67.3l30.3,6.3
		c26.8,5.5,40.4,18.7,40.4,39.2c0,23.8-19,39.1-48.4,39.1c-15.1,0-27.7-3.9-36.3-11.3c-8.1-6.9-12.4-16.5-12.4-27.8v-6.6v-5h-5H5H0
		v5v6.3c0,20.7,7.7,38.5,22.3,51.5C37.4,245.9,58.9,253,84.5,253c25.5,0,46.9-7.1,61.9-20.4c14.4-12.8,22.3-31,22.3-51.5
		c0-18.9-5.7-34.5-17-46.4c-11-11.7-27.5-19.9-49.1-24.4l-30.3-6.3c-25.2-5.4-36.5-16.3-36.5-35.3c0-22.4,16.5-35.8,44.2-35.8
		c27.5,0,43.9,13.4,43.9,35.8v4.5v5h5H155h5v-5v-4.5c0-19-7.4-36.3-20.8-48.5C124.9,6.9,104.4,0,80,0L80,0z"/>
	<path class="st0" d="M281.3,8.9c47.7,0,73.8,27.6,73.8,72.6c0,45-26.1,72.6-73.8,72.6h-62.4v90h-26.1V8.9H281.3 M218.9,131.3h59.7
		c33.3,0,50.4-18.9,50.4-49.8c0-31.2-17.1-49.8-50.4-49.8h-59.7V131.3 M281.3,3.9h-88.5h-5v5v235.2v5h5h26.1h5v-5v-85h57.4
		c24.5,0,44.7-7.2,58.3-20.9c13.4-13.4,20.5-33,20.5-56.7c0-23.7-7.1-43.3-20.5-56.7C326,11.1,305.8,3.9,281.3,3.9L281.3,3.9z
		 M223.9,36.7h54.7c29.7,0,45.4,15.5,45.4,44.8c0,14.3-3.8,25.4-11.3,33c-7.7,7.8-19.2,11.8-34.1,11.8h-54.7V36.7L223.9,36.7z"/>
	<path class="st0" d="M469.1,8.9c49.2,0,73.5,26.1,73.5,69.9c0,31.5-13.8,53.4-42.9,60.9c24.6,4.5,35.7,18.9,38.1,49.8
		c1.5,19.8,2.4,42,6.3,54.6h-26.4c-1.8-5.7-3-12.3-3.6-21.3c-3.3-51.3-2.4-71.4-51.3-71.4h-56.7v92.7H380V8.9H469.1 M406.1,128.6
		h59.7c32.4,0,50.4-15.9,50.4-48.3c0-32.7-18-48.6-50.4-48.6h-59.7V128.6 M469.1,3.9H380h-5v5v235.2v5h5h26.1h5v-5v-87.7h51.7
		c21.1,0,32.1,3.7,37.7,12.7c5.8,9.4,6.8,25.4,8.2,47.7c0.1,2.1,0.3,4.2,0.4,6.3c0.6,9,1.8,16.1,3.8,22.5l1.1,3.5h3.7h26.4h6.8
		l-2-6.5c-3.1-9.9-4.2-26.7-5.3-43c-0.2-3.5-0.5-7-0.7-10.5c-2.1-26.4-10.5-42.1-27.5-49.9c8.6-4.4,15.6-10.4,20.9-18.1
		c7.6-11.1,11.4-25.3,11.4-42.3c0-23.6-6.7-42-19.8-54.9C514.3,10.6,494.6,3.9,469.1,3.9L469.1,3.9z M411.1,36.7h54.7
		c15,0,26.4,3.6,33.9,10.7c7.6,7.2,11.5,18.3,11.5,32.9c0,14.5-3.9,25.5-11.5,32.7c-7.5,7.1-18.9,10.6-33.9,10.6h-54.7V36.7
		L411.1,36.7z"/>
	<path class="st0" d="M710.3,8.9v22.8H600.8v80.4h97.5v23.1h-97.5v86.4h111.3v22.5H574.7V8.9H710.3 M715.3,3.9h-5H574.7h-5v5v235.2
		v5h5h137.4h5v-5v-22.5v-5h-5H605.8v-76.4h92.5h5v-5v-23.1v-5h-5h-92.5V36.7h104.5h5v-5V8.9V3.9L715.3,3.9z"/>
	<path class="st0" d="M833.3,8.9l82.2,235.2h-27l-18.9-55.8H767l-18.9,55.8h-27.3L803.3,8.9H833.3 M774.5,165.5h87L818.3,35.9
		L774.5,165.5 M836.8,3.9h-3.5h-30h-3.5l-1.2,3.3l-82.5,235.2l-2.3,6.7h7.1h27.3h3.6l1.2-3.4l17.7-52.4H866l17.8,52.4l1.2,3.4h3.6
		h27h7l-2.3-6.6L838,7.3L836.8,3.9L836.8,3.9z M781.5,160.5l36.8-108.9l36.3,108.9H781.5L781.5,160.5z"/>
	<path class="st0" d="M1016.6,8.9c71.8,0,88.1,55.7,88.2,117.5c0.1,62.1-15.7,117.6-88,117.8l-82.2,0.1L934.2,9l82.2-0.1
		C1016.5,8.9,1016.6,8.9,1016.6,8.9 M960.7,221.4l54-0.1c48.9-0.1,64.1-33.7,64-94.9c-0.1-60.8-15.7-94.7-64.2-94.7
		c-0.1,0-0.1,0-0.2,0l-54,0.1L960.7,221.4 M1016.6,3.9v5V3.9L1016.6,3.9l-0.3,0L934.2,4l-5,0l0,5l0.4,235.2l0,5l5,0l82.2-0.1
		c35-0.1,60.3-12.9,75.4-38.1c11.9-19.8,17.6-47.5,17.6-84.7c-0.1-36.9-5.9-64.6-17.9-84.4C1076.7,16.7,1051.4,3.9,1016.6,3.9
		L1016.6,3.9z M965.3,36.8l49-0.1l0.2,0c22,0,36.6,7,46,22.2c8.8,14.2,13.2,36.3,13.2,67.5c0.1,31.9-4,53.4-12.9,67.7
		c-9.3,15.1-24,22.1-46.1,22.2l-49,0.1L965.3,36.8L965.3,36.8z"/>
</g>
</svg>
